<?xml version="1.0" encoding="UTF-8" standalone="no"?>
<!DOCTYPE svg PUBLIC "-//W3C//DTD SVG 1.1//EN" "http://www.w3.org/Graphics/SVG/1.1/DTD/svg11.dtd">
<svg version="1.1" xmlns="http://www.w3.org/2000/svg" xmlns:xlink="http://www.w3.org/1999/xlink" preserveAspectRatio="xMidYMid meet" viewBox="0.1585297470019209 -1.0066366350128817 128.96108788601498 150.00662667956286" width="124.96" height="146.01"><defs><path d="M91.3 127.76C91.36 127.99 91.35 127.96 91.3 127.76C91.3 127.76 91.3 127.76 91.3 127.76" id="d12XcoeqB6"></path><path d="M91.3 127.74C91.3 127.74 91.3 127.74 91.3 127.74C91.3 127.75 91.3 127.75 91.3 127.76C91.3 127.75 91.3 127.75 91.3 127.74" id="bxLy15Z8r"></path><path d="M62.47 39.91C62.87 41.18 63.1 41.89 63.14 42.03C63.24 42.01 63.33 41.98 63.43 41.97C64.52 41.84 65.55 42.16 66.36 42.76C66.55 42.56 67.5 41.56 69.2 39.77L67 37.79L62.47 39.91" id="bgachfJRQ"></path><path d="M60.29 36.48C60.01 36.55 59.72 36.61 59.43 36.64C57.62 36.84 55.9 36.34 54.52 35.36C53.8 36.24 48 43.26 47.28 44.13C47.66 44.51 48.02 44.93 48.29 45.41C49.15 45 53.46 42.99 61.2 39.36L60.29 36.48" id="b9UfN26I7n"></path><path d="M67.12 43.47C67.61 44.07 67.95 44.82 68.04 45.65C68.1 46.15 68.05 46.64 67.94 47.1C69.04 47.52 77.83 50.87 78.93 51.29C79.22 50.65 79.58 50.04 80.01 49.5C79.35 48.89 76 45.88 69.97 40.47L67.12 43.47" id="buEsfAW52"></path><path d="M64.36 50.26C62.25 50.5 60.34 49.1 59.86 47.09C58.78 47.21 50.16 48.17 49.08 48.29C49.08 48.46 49.09 48.63 49.08 48.8C52.01 49.23 75.42 52.64 78.34 53.07C78.4 52.79 78.47 52.52 78.55 52.26C77.45 51.84 68.68 48.49 67.58 48.07C66.95 49.25 65.78 50.1 64.36 50.26" id="aCT4kKFeU"></path><path d="M77.26 38.46C75.68 38.64 74.18 38.16 73.02 37.25C72.87 37.41 72.09 38.23 70.69 39.71C76.7 45.12 80.05 48.13 80.71 48.73C81.3 48.15 81.96 47.66 82.69 47.27C82.27 46.36 78.95 39.07 78.53 38.16C78.12 38.3 77.7 38.41 77.26 38.46" id="g3d3hvl6Zd"></path><path d="M69.91 39.01C71.33 37.52 72.12 36.69 72.27 36.53C72.03 36.25 71.81 35.95 71.62 35.62C71.38 35.74 70.18 36.3 68.02 37.31L69.91 39.01" id="a4CjQRSonD"></path><path d="M66.16 37.04C64.6 35.63 63.73 34.85 63.56 34.7C62.91 35.32 62.14 35.82 61.28 36.17C61.34 36.35 61.63 37.27 62.15 38.91L66.16 37.04" id="etP636f1k"></path><path d="M71.19 34.68C71.03 34.26 70.91 33.82 70.86 33.35C70.82 32.97 70.82 32.6 70.85 32.23C70.32 32.14 66.06 31.4 65.53 31.3C65.29 32.26 64.85 33.16 64.25 33.92C64.45 34.1 65.42 34.98 67.18 36.56L71.19 34.68" id="adQzI611"></path><path d="M62.15 42.34L61.52 40.36C53.84 43.96 49.58 45.96 48.72 46.36C48.83 46.65 48.9 46.95 48.96 47.26C50.04 47.14 58.66 46.18 59.74 46.06C59.76 44.43 60.72 43 62.15 42.34" id="ajVaM1Yj"></path><path d="M123.51 107.99L92.94 125.85C91.82 126.5 91.2 126.87 91.08 126.94C90.86 126.15 90.52 125 90.15 123.96C88.19 118.53 85.22 112.77 83.25 107.34C82.51 105.32 81.4 102.98 79.67 101.59C79.17 101.19 78.59 100.91 78 100.68C77.44 100.46 77.74 100.65 77.25 100.3C77.04 100.15 76.86 99.89 76.81 99.63C76.77 99.41 76.84 99.14 77.05 99.03C77.17 98.96 77.31 98.96 77.45 98.96C78.34 99.02 80.28 99.77 80.65 98.4C80.7 98.2 81.16 96.57 81.21 96.36C81.32 95.99 81.7 95.76 82.08 95.84C82.08 95.84 82.08 95.84 82.08 95.84C82.94 96.04 83.83 96.1 84.7 96.02C85.39 95.96 86.14 95.85 86.53 95.63C86.98 95.38 87.25 94.89 87.34 94.39C87.67 92.67 87.75 90.14 88.23 87.81C88.82 84.97 89.05 80.63 91.35 78.63C93 77.19 94.77 76.87 96.12 74.91C100.79 68.16 101.93 57.64 101.62 49.67C101.45 45.41 100.44 41.23 98.73 37.36C92.24 22.63 76.21 14.28 60.36 17.33C43.83 20.51 34.12 34.22 30.82 49.86C29.99 53.81 28.44 57.98 24.99 60.08C21.04 62.47 16.02 61.49 11.67 61.16C11.17 61.12 5.72 60.66 3.77 60.74C3.77 60.25 3.77 57.81 3.77 53.4L3.77 48.15L3.77 38.01L63.64 3.02L123.51 38.01L123.51 107.99ZM68.82 119.85C68.71 119.92 68.59 119.96 68.46 119.97C68.4 119.98 68.34 119.99 68.28 119.99C66.46 120.11 64.89 119.14 63.28 118.45C62.26 118 62.13 117.56 61.11 117.12C63.44 116.72 65.4 115.69 67.61 116.75C68.16 117.02 68.74 117.35 69.01 117.9C69.17 118.22 69.21 118.6 69.19 118.95C69.18 119.29 69.1 119.67 68.82 119.85ZM57.85 22.5C61.75 22.07 65.27 24.88 65.7 28.78C65.76 29.29 65.76 29.79 65.71 30.28C66.24 30.37 70.5 31.12 71.04 31.21C71.64 28.98 73.54 27.23 75.97 26.96C79.15 26.6 82.01 28.89 82.36 32.07C82.63 34.44 81.42 36.63 79.48 37.74C79.89 38.65 83.22 45.93 83.64 46.85C84.3 46.59 85.01 46.4 85.75 46.32C90.44 45.8 94.67 49.17 95.19 53.86C95.72 58.55 92.34 62.78 87.65 63.3C82.96 63.83 78.74 60.45 78.21 55.76C78.15 55.2 78.14 54.64 78.19 54.09C75.26 53.67 51.85 50.25 48.93 49.83C48.36 52.26 46.33 54.19 43.71 54.48C40.38 54.85 37.38 52.45 37 49.12C36.63 45.79 39.03 42.78 42.36 42.41C43.88 42.24 45.31 42.66 46.47 43.47C47.2 42.59 52.99 35.58 53.72 34.71C52.56 33.59 51.76 32.09 51.57 30.36C51.13 26.46 53.94 22.94 57.85 22.5ZM71.91 138.14L67.43 140.76L63.79 142.89L63.64 142.98L36 126.82C35.97 126.81 35.96 126.8 35.95 126.8C35.91 125.94 35.57 119.5 35.57 119.5C35.44 115.33 36.06 111.25 36.57 107.12C36.99 103.75 36.92 100.36 36.77 96.98C36.63 93.83 39.47 93.83 41.93 94.33C43.75 94.69 45.4 95.61 46.71 96.91C48.54 98.73 50.42 100.59 52.12 102.51C52.4 102.82 55.29 105.57 55.29 105.57C55.21 105.5 52.47 107.07 52.24 107.18C50.46 108.03 48.64 108.81 46.95 109.84C46.14 110.33 45.4 110.93 44.69 111.55C43.33 112.73 40.84 114.65 42.25 116.74C43.02 117.87 44.57 117.98 45.79 117.67C46.94 117.38 48.45 116.76 49.4 116.04C49.65 115.9 51.64 114.78 51.89 114.64C51.76 114.68 51.32 115.9 51.27 116.07C50.35 118.75 49.52 121.76 49.03 124.56C48.71 126.35 49.65 128.75 51.78 128.75C52.74 128.76 53.6 128.1 54.14 127.31C54.34 127.01 55.96 122.77 55.96 122.77C56.01 122.8 56.47 123.07 56.53 123.1C58.09 124.02 59.92 124.36 61.58 125.09C63.33 125.86 64.98 126.86 66.37 128.18C67.55 129.29 68.91 130.64 69.9 132C70.85 133.3 72.67 135.2 73.92 136.24C74.11 136.4 74.27 136.54 74.43 136.67C74.09 136.87 73.25 137.36 71.91 138.14ZM124.83 35.75L64.96 0.76L63.64 -0.01L62.32 0.76L2.45 35.75L1.16 36.51L1.16 38.01L1.16 48.15L1.16 53.4L1.16 107.99L1.16 109.48L2.45 110.24L34.68 129.07L62.32 145.23L63.64 146L64.96 145.23L65.1 145.14L68.75 143.01L73.22 140.4L94.25 128.11L124.83 110.24L126.12 109.48L126.12 107.99L126.12 38.01L126.12 36.51L124.83 35.75" id="f10901joks"></path><path d="M51.57 30.38C51.14 26.47 53.95 22.95 57.85 22.52C61.76 22.08 65.27 24.89 65.71 28.8C66.15 32.7 63.33 36.22 59.43 36.65C55.53 37.09 52.01 34.28 51.57 30.38" id="ea4zPCe4U"></path><path d="M37.01 49.13C36.64 45.8 39.04 42.79 42.37 42.42C45.7 42.05 48.71 44.45 49.08 47.78C49.45 51.12 47.05 54.12 43.72 54.49C40.38 54.86 37.38 52.46 37.01 49.13" id="bfkSkpRCb"></path><path d="M70.87 33.37C70.51 30.19 72.8 27.33 75.98 26.97C79.15 26.62 82.01 28.91 82.37 32.08C82.72 35.26 80.44 38.12 77.26 38.48C74.08 38.83 71.22 36.54 70.87 33.37" id="a3HcCFv4yh"></path><path d="M78.22 55.77C77.69 51.08 81.07 46.86 85.76 46.33C90.45 45.81 94.67 49.19 95.2 53.88C95.72 58.56 92.34 62.79 87.66 63.31C82.97 63.84 78.74 60.46 78.22 55.77" id="d2K0c1DM9h"></path><path d="M59.75 46.59C59.5 44.3 61.15 42.23 63.44 41.98C65.73 41.72 67.79 43.37 68.05 45.66C68.31 47.95 66.66 50.02 64.36 50.28C62.07 50.53 60.01 48.88 59.75 46.59" id="b2i9toV0uJ"></path></defs><g><g><use xlink:href="#d12XcoeqB6" opacity="1" fill="#ffffff" fill-opacity="1"></use><g><use xlink:href="#d12XcoeqB6" opacity="1" fill-opacity="0" stroke="#000000" stroke-width="1" stroke-opacity="0"></use></g></g><g><use xlink:href="#bxLy15Z8r" opacity="1" fill="#ffffff" fill-opacity="1"></use><g><use xlink:href="#bxLy15Z8r" opacity="1" fill-opacity="0" stroke="#000000" stroke-width="1" stroke-opacity="0"></use></g></g><g><use xlink:href="#bgachfJRQ" opacity="1" fill="#ffffff" fill-opacity="1"></use><g><use xlink:href="#bgachfJRQ" opacity="1" fill-opacity="0" stroke="#000000" stroke-width="1" stroke-opacity="0"></use></g></g><g><use xlink:href="#b9UfN26I7n" opacity="1" fill="#ffffff" fill-opacity="1"></use><g><use xlink:href="#b9UfN26I7n" opacity="1" fill-opacity="0" stroke="#000000" stroke-width="1" stroke-opacity="0"></use></g></g><g><use xlink:href="#buEsfAW52" opacity="1" fill="#ffffff" fill-opacity="1"></use><g><use xlink:href="#buEsfAW52" opacity="1" fill-opacity="0" stroke="#000000" stroke-width="1" stroke-opacity="0"></use></g></g><g><use xlink:href="#aCT4kKFeU" opacity="1" fill="#ffffff" fill-opacity="1"></use><g><use xlink:href="#aCT4kKFeU" opacity="1" fill-opacity="0" stroke="#000000" stroke-width="1" stroke-opacity="0"></use></g></g><g><use xlink:href="#g3d3hvl6Zd" opacity="1" fill="#ffffff" fill-opacity="1"></use><g><use xlink:href="#g3d3hvl6Zd" opacity="1" fill-opacity="0" stroke="#000000" stroke-width="1" stroke-opacity="0"></use></g></g><g><use xlink:href="#a4CjQRSonD" opacity="1" fill="#ffffff" fill-opacity="1"></use><g><use xlink:href="#a4CjQRSonD" opacity="1" fill-opacity="0" stroke="#000000" stroke-width="1" stroke-opacity="0"></use></g></g><g><use xlink:href="#etP636f1k" opacity="1" fill="#ffffff" fill-opacity="1"></use><g><use xlink:href="#etP636f1k" opacity="1" fill-opacity="0" stroke="#000000" stroke-width="1" stroke-opacity="0"></use></g></g><g><use xlink:href="#adQzI611" opacity="1" fill="#ffffff" fill-opacity="1"></use><g><use xlink:href="#adQzI611" opacity="1" fill-opacity="0" stroke="#000000" stroke-width="1" stroke-opacity="0"></use></g></g><g><use xlink:href="#ajVaM1Yj" opacity="1" fill="#ffffff" fill-opacity="1"></use><g><use xlink:href="#ajVaM1Yj" opacity="1" fill-opacity="0" stroke="#000000" stroke-width="1" stroke-opacity="0"></use></g></g><g><use xlink:href="#f10901joks" opacity="1" fill="#ffffff" fill-opacity="1"></use><g><use xlink:href="#f10901joks" opacity="1" fill-opacity="0" stroke="#000000" stroke-width="1" stroke-opacity="0"></use></g></g><g><use xlink:href="#ea4zPCe4U" opacity="1" fill="#88bfe0" fill-opacity="1"></use><g><use xlink:href="#ea4zPCe4U" opacity="1" fill-opacity="0" stroke="#000000" stroke-width="1" stroke-opacity="0"></use></g></g><g><use xlink:href="#bfkSkpRCb" opacity="1" fill="#88bfe0" fill-opacity="1"></use><g><use xlink:href="#bfkSkpRCb" opacity="1" fill-opacity="0" stroke="#000000" stroke-width="1" stroke-opacity="0"></use></g></g><g><use xlink:href="#a3HcCFv4yh" opacity="1" fill="#88bfe0" fill-opacity="1"></use><g><use xlink:href="#a3HcCFv4yh" opacity="1" fill-opacity="0" stroke="#000000" stroke-width="1" stroke-opacity="0"></use></g></g><g><use xlink:href="#d2K0c1DM9h" opacity="1" fill="#88bfe0" fill-opacity="1"></use><g><use xlink:href="#d2K0c1DM9h" opacity="1" fill-opacity="0" stroke="#000000" stroke-width="1" stroke-opacity="0"></use></g></g><g><use xlink:href="#b2i9toV0uJ" opacity="1" fill="#88bfe0" fill-opacity="1"></use><g><use xlink:href="#b2i9toV0uJ" opacity="1" fill-opacity="0" stroke="#000000" stroke-width="1" stroke-opacity="0"></use></g></g></g></svg>