<?xml version="1.0" encoding="UTF-8" standalone="no"?>
<svg
   xmlns:dc="http://purl.org/dc/elements/1.1/"
   xmlns:cc="http://creativecommons.org/ns#"
   xmlns:rdf="http://www.w3.org/1999/02/22-rdf-syntax-ns#"
   xmlns:svg="http://www.w3.org/2000/svg"
   xmlns="http://www.w3.org/2000/svg"
   viewBox="0 0 323.38666 377.85333"
   height="377.85333"
   width="323.38666"
   xml:space="preserve"
   id="svg2"
   version="1.1"><metadata
     id="metadata8"><rdf:RDF><cc:Work
         rdf:about=""><dc:format>image/svg+xml</dc:format><dc:type
           rdf:resource="http://purl.org/dc/dcmitype/StillImage" /></cc:Work></rdf:RDF></metadata><defs
     id="defs6" /><g
     transform="matrix(1.3333333,0,0,-1.3333333,0,377.85333)"
     id="g10"><g
       transform="scale(0.1)"
       id="g12"><path
         id="path14"
         style="fill:#1f2952;fill-opacity:1;fill-rule:nonzero;stroke:none"
         d="m 1289.75,567.641 c -42.95,20.668 -80.91,0.629 -126.09,-7.051 19.72,-8.59 22.35,-17.168 42.08,-25.77 31.19,-13.57 61.82,-32.23 97.12,-30 1.14,0.071 2.29,0.168 3.43,0.321 2.49,0.359 4.92,1.007 7.01,2.379 5.46,3.582 6.99,10.878 7.23,17.421 0.26,6.981 -0.47,14.168 -3.54,20.438 -5.28,10.73 -16.47,17.082 -27.24,22.262" /><path
         id="path16"
         style="fill:#1f2952;fill-opacity:1;fill-rule:nonzero;stroke:none"
         d="M 50.668,2096.09 V 1654.8 c 37.8828,1.62 143.652,-7.35 153.332,-8.09 84.402,-6.51 181.863,-25.48 258.523,21.01 66.985,40.62 97.051,121.61 113.223,198.24 64.082,303.64 252.422,569.83 573.254,631.55 307.7,59.19 618.77,-103.02 744.85,-388.9 33.16,-75.16 52.83,-156.26 56.06,-238.9 6.05,-154.76 -16.07,-358.81 -106.77,-489.92 -26.26,-37.95 -60.49,-44.3 -92.5,-72.09 -44.76,-38.84 -49.25,-123.04 -60.64,-178.24 -9.33,-45.21 -10.87,-94.38 -17.23,-127.77 -1.85,-9.69 -7.12,-19.28 -15.75,-24.03 -7.61,-4.191 -22.05,-6.398 -35.42,-7.57 -17.03,-1.481 -34.23,-0.301 -50.92,3.422 -0.01,0 -0.01,0 -0.01,0 -7.41,1.66 -14.83,-2.793 -16.86,-10.114 l -10.98,-39.578 c -7.12,-26.422 -44.87,-11.941 -62.02,-10.879 -2.67,0.149 -5.47,0.079 -7.82,-1.203 -3.97,-2.168 -5.5,-7.379 -4.62,-11.808 0.99,-4.86 4.4,-10.09 8.47,-12.95 9.52,-6.71 3.79,-3.058 14.57,-7.32 11.51,-4.558 22.75,-9.91 32.44,-17.719 33.55,-27.019 55.13,-72.32 69.46,-111.679 38.34,-105.274 95.89,-217.071 133.93,-322.461 7.28,-20.153 13.8,-42.422 18.08,-57.84 l 36.03,21.059 593.4,346.8 V 2096.09 L 1212.72,2775.23 50.668,2096.09" /><path
         id="path18"
         style="fill:#1f2952;fill-opacity:1;fill-rule:nonzero;stroke:none"
         d="m 1334.26,271.75 c -19.28,26.41 -45.74,52.648 -68.51,74.211 -26.98,25.508 -59.13,44.91 -92.99,59.867 -32.13,14.192 -67.68,20.723 -98.03,38.57 l -11.15,6.532 c 0,0 -31.26,-82.328 -35.19,-88.09 -10.52,-15.41 -27.19,-28.141 -45.847,-28.09 -41.289,0.141 -59.578,46.719 -53.438,81.461 9.59,54.187 25.762,112.687 43.438,164.641 1.125,3.296 9.68,27.007 12.102,27.867 L 936.422,581.57 c -18.594,-13.941 -47.844,-26.121 -70.246,-31.769 -23.535,-5.922 -53.758,-3.852 -68.574,18.129 -27.372,40.621 20.937,77.82 47.246,100.75 13.859,12.082 28.203,23.621 43.925,33.16 32.864,19.941 68.067,35.18 102.649,51.64 4.473,2.122 57.748,32.629 59.218,31.239 -0.01,0.011 -56.027,53.281 -61.535,59.492 -32.949,37.219 -69.402,73.269 -104.91,108.539 -25.468,25.309 -57.55,43.141 -92.754,50.2 -47.882,9.62 -102.961,9.74 -100.285,-51.47 2.871,-65.71 4.278,-131.492 -3.758,-196.769 -9.894,-80.332 -22.089,-159.41 -19.543,-240.41 0,0 6.622,-124.91 7.512,-141.571 l 0.789,-0.468 536.554,-313.5706 2.87,1.668 70.73,41.3516 86.86,50.758 48.99,28.621 c -3.06,2.609 -6.26,5.32 -9.93,8.379 -24.13,20.07 -59.47,56.929 -77.97,82.281" /><path
         id="path20"
         style="fill:#ffffff;fill-opacity:1;fill-rule:nonzero;stroke:none"
         d="m 1226.7,1858.23 c -41.07,-4.59 -78.32,22.4 -87.7,61.57 l -208.391,-23.28 c 0.09,-3.35 -0.007,-6.66 -0.203,-9.95 l 567.684,-82.77 c 1.1,5.31 2.46,10.54 4.07,15.66 l -212.97,81.21 c -12.14,-22.75 -34.91,-39.35 -62.49,-42.44" /><path
         id="path22"
         style="fill:#ffffff;fill-opacity:1;fill-rule:nonzero;stroke:none"
         d="m 1334.53,2076.53 45.73,48.2 c -4.77,5.41 -9.01,11.29 -12.7,17.57 l -69.8,-32.71 36.77,-33.06" /><path
         id="path24"
         style="fill:#ffffff;fill-opacity:1;fill-rule:nonzero;stroke:none"
         d="m 1190.02,2059.1 12.97,-40.77 c 1.9,0.35 3.77,0.72 5.72,0.94 21.07,2.35 41.11,-3.68 56.94,-15.32 l 54.97,57.93 -42.71,38.4 -87.89,-41.18" /><path
         id="path26"
         style="fill:#ffffff;fill-opacity:1;fill-rule:nonzero;stroke:none"
         d="m 1147.68,2125.66 c -5.46,-1.3 -11.01,-2.39 -16.74,-3.02 -35.08,-3.93 -68.46,5.79 -95.13,24.74 L 895.445,1977.57 c 7.539,-7.41 14.071,-15.84 19.434,-25.1 l 250.541,117.41 -17.74,55.78" /><path
         id="path28"
         style="fill:#ffffff;fill-opacity:1;fill-rule:nonzero;stroke:none"
         d="m 1183.75,2012.25 -12.15,38.22 -248.217,-116.32 c 2.082,-5.67 3.781,-11.51 4.992,-17.59 l 208.375,23.29 c 0.4,31.56 19.13,59.54 47,72.4" /><path
         id="path30"
         style="fill:#ffffff;fill-opacity:1;fill-rule:nonzero;stroke:none"
         d="m 1280.33,1990.08 c 9.6,-11.69 16.08,-26.17 17.89,-42.34 1.08,-9.71 0.31,-19.19 -1.88,-28.17 l 213.12,-81.27 c 5.64,12.43 12.64,24.17 21.09,34.79 l -194.92,175.29 -55.3,-58.3" /><path
         id="path32"
         style="fill:#ffffff;fill-opacity:1;fill-rule:nonzero;stroke:none"
         d="m 1359.05,2160.61 c -2.97,8.19 -5.13,16.78 -6.13,25.8 -0.84,7.38 -0.88,14.65 -0.3,21.78 l -103.26,18.02 c -4.69,-18.66 -13.13,-35.96 -24.7,-50.89 l 56.79,-51.06 77.6,36.35" /><path
         id="path34"
         style="fill:#ffffff;fill-opacity:1;fill-rule:nonzero;stroke:none"
         d="m 1261.6,2114.95 -50.48,45.39 c -12.61,-12.11 -27.53,-21.88 -44.2,-28.55 l 16.93,-53.27 77.75,36.43" /><path
         id="path36"
         style="fill:#ffffff;fill-opacity:1;fill-rule:nonzero;stroke:none"
         d="m 1477.01,2087.27 c -30.63,-3.43 -59.74,5.82 -82.14,23.54 l -45.33,-47.78 194.61,-174.99 c 11.27,11.11 24.15,20.63 38.34,28.19 l -80.71,176.78 c -7.87,-2.77 -16.13,-4.78 -24.77,-5.74" /><path
         id="path38"
         style="fill:#ffffff;fill-opacity:1;fill-rule:nonzero;stroke:none"
         d="m 1678.77,1605.14 c -91.01,-10.17 -173.04,55.37 -183.21,146.38 -1.22,10.95 -1.3,21.75 -0.42,32.32 l -567.636,82.76 c -11.082,-47.17 -50.645,-84.53 -101.563,-90.22 -64.687,-7.23 -122.988,39.35 -130.214,104.05 -7.235,64.7 39.355,123 104.043,130.22 29.433,3.3 57.48,-4.65 80.058,-20.27 l 140.332,169.78 c -22.558,21.58 -37.976,50.86 -41.719,84.32 -8.464,75.76 46.089,144.04 121.849,152.5 75.76,8.46 144.03,-46.09 152.5,-121.84 1.1,-9.87 1.08,-19.59 0.14,-29.07 l 103.22,-18.02 c 11.66,43.29 48.67,77.18 95.92,82.47 61.65,6.88 117.2,-37.51 124.09,-99.16 5.13,-45.94 -18.24,-88.48 -55.99,-110.03 l 80.7,-176.78 c 12.95,4.97 26.64,8.58 41.08,10.18 91.01,10.17 173.04,-55.37 183.21,-146.38 10.17,-91.02 -55.37,-173.04 -146.39,-183.21 z M 1313.3,507.52 c -2.09,-1.372 -4.52,-2.02 -7.01,-2.379 -1.14,-0.153 -2.29,-0.25 -3.43,-0.321 -35.3,-2.23 -65.93,16.43 -97.12,30 -19.73,8.602 -22.36,17.18 -42.08,25.77 45.18,7.68 83.14,27.719 126.09,7.051 10.77,-5.18 21.96,-11.532 27.24,-22.262 3.07,-6.27 3.8,-13.457 3.54,-20.438 -0.24,-6.543 -1.77,-13.839 -7.23,-17.421 z m 580.55,1601.09 C 1767.77,2394.49 1456.7,2556.7 1149,2497.51 828.168,2435.79 639.828,2169.6 575.746,1865.96 559.574,1789.33 529.508,1708.34 462.523,1667.72 385.863,1621.23 288.402,1640.2 204,1646.71 c -9.68,0.74 -115.4492,9.71 -153.332,8.09 V 737.82 L 675.367,372.73 c -0.89,16.661 -7.512,141.571 -7.512,141.571 -2.546,81 9.649,160.078 19.543,240.41 8.036,65.277 6.629,131.059 3.758,196.769 -2.676,61.21 52.403,61.09 100.285,51.47 35.204,-7.059 67.286,-24.891 92.754,-50.2 35.508,-35.27 71.961,-71.32 104.91,-108.539 5.508,-6.211 61.525,-59.481 61.535,-59.492 -1.47,1.39 -54.745,-29.117 -59.218,-31.239 -34.582,-16.46 -69.785,-31.699 -102.649,-51.64 -15.722,-9.539 -30.066,-21.078 -43.925,-33.16 -26.309,-22.93 -74.618,-60.129 -47.246,-100.75 14.816,-21.981 45.039,-24.051 68.574,-18.129 22.402,5.648 51.652,17.828 70.246,31.769 l 48.223,27.149 c -2.422,-0.86 -10.977,-24.571 -12.102,-27.867 -17.676,-51.954 -33.848,-110.454 -43.438,-164.641 -6.14,-34.742 12.149,-81.32 53.438,-81.461 18.657,-0.051 35.327,12.68 45.847,28.09 3.93,5.762 35.19,88.09 35.19,88.09 l 11.15,-6.532 c 30.35,-17.847 65.9,-24.378 98.03,-38.57 33.86,-14.957 66.01,-34.359 92.99,-59.867 22.77,-21.563 49.23,-47.801 68.51,-74.211 18.5,-25.352 53.84,-62.211 77.97,-82.281 3.67,-3.059 6.87,-5.77 9.93,-8.379 l 323.16,188.871 c -4.28,15.418 -10.8,37.687 -18.08,57.84 -38.04,105.39 -95.59,217.187 -133.93,322.461 -14.33,39.359 -35.91,84.66 -69.46,111.679 -9.69,7.809 -20.93,13.161 -32.44,17.719 -10.78,4.262 -5.05,0.61 -14.57,7.32 -4.07,2.86 -7.48,8.09 -8.47,12.95 -0.88,4.429 0.65,9.64 4.62,11.808 2.35,1.282 5.15,1.352 7.82,1.203 17.15,-1.062 54.9,-15.543 62.02,10.879 l 10.98,39.578 c 2.03,7.321 9.45,11.774 16.86,10.114 0,0 0,0 0.01,0 16.69,-3.723 33.89,-4.903 50.92,-3.422 13.37,1.172 27.81,3.379 35.42,7.57 8.63,4.75 13.9,14.34 15.75,24.03 6.36,33.39 7.9,82.56 17.23,127.77 11.39,55.2 15.88,139.4 60.64,178.24 32.01,27.79 66.24,34.14 92.5,72.09 90.7,131.11 112.82,335.16 106.77,489.92 -3.23,82.64 -22.9,163.74 -56.06,238.9" /><path
         id="path40"
         style="fill:#1f2952;fill-opacity:1;fill-rule:nonzero;stroke:none"
         d="m 1530.55,1873.09 c 4.2,5.28 8.79,10.21 13.6,14.95 l -194.61,174.99 -13.91,-14.65 194.92,-175.29" /><path
         id="path42"
         style="fill:#1f2952;fill-opacity:1;fill-rule:nonzero;stroke:none"
         d="m 1166.92,2131.79 c -6.19,-2.49 -12.6,-4.56 -19.24,-6.13 l 17.74,-55.78 18.43,8.64 -16.93,53.27" /><path
         id="path44"
         style="fill:#1f2952;fill-opacity:1;fill-rule:nonzero;stroke:none"
         d="m 1190.02,2059.1 -18.42,-8.63 12.15,-38.22 c 6.02,2.79 12.47,4.83 19.24,6.08 l -12.97,40.77" /><path
         id="path46"
         style="fill:#1f2952;fill-opacity:1;fill-rule:nonzero;stroke:none"
         d="m 1281.45,2124.26 -56.79,51.06 c -4.13,-5.32 -8.68,-10.29 -13.54,-14.98 l 50.48,-45.39 19.85,9.31" /><path
         id="path48"
         style="fill:#1f2952;fill-opacity:1;fill-rule:nonzero;stroke:none"
         d="m 1334.53,2076.53 -36.77,33.06 -19.85,-9.31 42.71,-38.4 13.91,14.65" /><path
         id="path50"
         style="fill:#1f2952;fill-opacity:1;fill-rule:nonzero;stroke:none"
         d="m 1265.65,2003.95 c 5.43,-4 10.37,-8.64 14.68,-13.87 l 55.3,58.3 -15.01,13.5 -54.97,-57.93" /><path
         id="path52"
         style="fill:#1f2952;fill-opacity:1;fill-rule:nonzero;stroke:none"
         d="m 1289.19,1900.67 212.97,-81.21 c 2.03,6.47 4.52,12.73 7.3,18.84 l -213.12,81.27 c -1.62,-6.62 -3.99,-12.98 -7.15,-18.9" /><path
         id="path54"
         style="fill:#1f2952;fill-opacity:1;fill-rule:nonzero;stroke:none"
         d="M 1165.42,2069.88 914.879,1952.47 c 3.348,-5.78 6.16,-11.92 8.504,-18.32 l 248.217,116.32 -6.18,19.41" /><path
         id="path56"
         style="fill:#1f2952;fill-opacity:1;fill-rule:nonzero;stroke:none"
         d="m 1349.54,2063.03 45.33,47.78 c -5.28,4.18 -10.15,8.86 -14.61,13.92 l -45.73,-48.2 15.01,-13.5" /><path
         id="path58"
         style="fill:#1f2952;fill-opacity:1;fill-rule:nonzero;stroke:none"
         d="m 1498.09,1803.8 -567.684,82.77 c -0.39,-6.82 -1.379,-13.48 -2.902,-19.97 l 567.636,-82.76 c 0.57,6.76 1.58,13.41 2.95,19.96" /><path
         id="path60"
         style="fill:#1f2952;fill-opacity:1;fill-rule:nonzero;stroke:none"
         d="m 1261.6,2114.95 -77.75,-36.43 6.17,-19.42 87.89,41.18 -16.31,14.67" /><path
         id="path62"
         style="fill:#1f2952;fill-opacity:1;fill-rule:nonzero;stroke:none"
         d="m 1367.56,2142.3 c -3.37,5.77 -6.2,11.91 -8.51,18.31 l -77.6,-36.35 16.31,-14.67 69.8,32.71" /><path
         id="path64"
         style="fill:#1f2952;fill-opacity:1;fill-rule:nonzero;stroke:none"
         d="m 1277.91,2100.28 19.85,9.31 -16.31,14.67 -19.85,-9.31 16.31,-14.67" /><path
         id="path66"
         style="fill:#1f2952;fill-opacity:1;fill-rule:nonzero;stroke:none"
         d="m 1190.02,2059.1 -6.17,19.42 -18.43,-8.64 6.18,-19.41 18.42,8.63" /><path
         id="path68"
         style="fill:#1f2952;fill-opacity:1;fill-rule:nonzero;stroke:none"
         d="m 1320.62,2061.88 15.01,-13.5 13.91,14.65 -15.01,13.5 -13.91,-14.65" /><path
         id="path70"
         style="fill:#1f2952;fill-opacity:1;fill-rule:nonzero;stroke:none"
         d="m 1035.81,2147.38 c -5.5,3.91 -10.78,8.12 -15.65,12.78 L 879.828,1990.38 c 5.547,-3.84 10.801,-8.09 15.617,-12.81 l 140.365,169.81" /><path
         id="path72"
         style="fill:#1f2952;fill-opacity:1;fill-rule:nonzero;stroke:none"
         d="m 1352.62,2208.19 c 0.57,6.8 1.79,13.42 3.53,19.86 l -103.22,18.02 c -0.67,-6.77 -1.94,-13.37 -3.57,-19.86 l 103.26,-18.02" /><path
         id="path74"
         style="fill:#1f2952;fill-opacity:1;fill-rule:nonzero;stroke:none"
         d="m 1136.75,1939.85 -208.375,-23.29 c 0.645,-3.27 1.238,-6.57 1.621,-9.96 0.379,-3.38 0.527,-6.74 0.613,-10.08 L 1139,1919.8 c -0.78,3.25 -1.44,6.55 -1.81,9.95 -0.39,3.4 -0.48,6.76 -0.44,10.1" /><path
         id="path76"
         style="fill:#1f2952;fill-opacity:1;fill-rule:nonzero;stroke:none"
         d="m 1582.49,1916.23 c 5.9,3.15 12.06,5.89 18.38,8.32 l -80.7,176.78 c -5.8,-3.31 -11.96,-6.07 -18.39,-8.32 l 80.71,-176.78" /><path
         id="path78"
         style="fill:#88bfe0;fill-opacity:1;fill-rule:nonzero;stroke:none"
         d="m 1100.29,2396.98 c -75.76,-8.46 -130.313,-76.74 -121.849,-152.5 3.743,-33.46 19.161,-62.74 41.719,-84.32 4.87,-4.66 10.15,-8.87 15.65,-12.78 26.67,-18.95 60.05,-28.67 95.13,-24.74 5.73,0.63 11.28,1.72 16.74,3.02 6.64,1.57 13.05,3.64 19.24,6.13 16.67,6.67 31.59,16.44 44.2,28.55 4.86,4.69 9.41,9.66 13.54,14.98 11.57,14.93 20.01,32.23 24.7,50.89 1.63,6.49 2.9,13.09 3.57,19.86 0.94,9.48 0.96,19.2 -0.14,29.07 -8.47,75.75 -76.74,130.3 -152.5,121.84" /><path
         id="path80"
         style="fill:#88bfe0;fill-opacity:1;fill-rule:nonzero;stroke:none"
         d="m 928.375,1916.56 c -1.211,6.08 -2.91,11.92 -4.992,17.59 -2.344,6.4 -5.156,12.54 -8.504,18.32 -5.363,9.26 -11.895,17.69 -19.434,25.1 -4.816,4.72 -10.07,8.97 -15.617,12.81 -22.578,15.62 -50.625,23.57 -80.058,20.27 -64.688,-7.22 -111.278,-65.52 -104.043,-130.22 7.226,-64.7 65.527,-111.28 130.214,-104.05 50.918,5.69 90.481,43.05 101.563,90.22 1.523,6.49 2.512,13.15 2.902,19.97 0.196,3.29 0.293,6.6 0.203,9.95 -0.086,3.34 -0.234,6.7 -0.613,10.08 -0.383,3.39 -0.976,6.69 -1.621,9.96" /><path
         id="path82"
         style="fill:#88bfe0;fill-opacity:1;fill-rule:nonzero;stroke:none"
         d="m 1359.05,2160.61 c 2.31,-6.4 5.14,-12.54 8.51,-18.31 3.69,-6.28 7.93,-12.16 12.7,-17.57 4.46,-5.06 9.33,-9.74 14.61,-13.92 22.4,-17.72 51.51,-26.97 82.14,-23.54 8.64,0.96 16.9,2.97 24.77,5.74 6.43,2.25 12.59,5.01 18.39,8.32 37.75,21.55 61.12,64.09 55.99,110.03 -6.89,61.65 -62.44,106.04 -124.09,99.16 -47.25,-5.29 -84.26,-39.18 -95.92,-82.47 -1.74,-6.44 -2.96,-13.06 -3.53,-19.86 -0.58,-7.13 -0.54,-14.4 0.3,-21.78 1,-9.02 3.16,-17.61 6.13,-25.8" /><path
         id="path84"
         style="fill:#88bfe0;fill-opacity:1;fill-rule:nonzero;stroke:none"
         d="m 1530.55,1873.09 c -8.45,-10.62 -15.45,-22.36 -21.09,-34.79 -2.78,-6.11 -5.27,-12.37 -7.3,-18.84 -1.61,-5.12 -2.97,-10.35 -4.07,-15.66 -1.37,-6.55 -2.38,-13.2 -2.95,-19.96 -0.88,-10.57 -0.8,-21.37 0.42,-32.32 10.17,-91.01 92.2,-156.55 183.21,-146.38 91.02,10.17 156.56,92.19 146.39,183.21 -10.17,91.01 -92.2,156.55 -183.21,146.38 -14.44,-1.6 -28.13,-5.21 -41.08,-10.18 -6.32,-2.43 -12.48,-5.17 -18.38,-8.32 -14.19,-7.56 -27.07,-17.08 -38.34,-28.19 -4.81,-4.74 -9.4,-9.67 -13.6,-14.95" /><path
         id="path86"
         style="fill:#88bfe0;fill-opacity:1;fill-rule:nonzero;stroke:none"
         d="m 1208.71,2019.27 c -1.95,-0.22 -3.82,-0.59 -5.72,-0.94 -6.77,-1.25 -13.22,-3.29 -19.24,-6.08 -27.87,-12.86 -46.6,-40.84 -47,-72.4 -0.04,-3.34 0.05,-6.7 0.44,-10.1 0.37,-3.4 1.03,-6.7 1.81,-9.95 9.38,-39.17 46.63,-66.16 87.7,-61.57 27.58,3.09 50.35,19.69 62.49,42.44 3.16,5.92 5.53,12.28 7.15,18.9 2.19,8.98 2.96,18.46 1.88,28.17 -1.81,16.17 -8.29,30.65 -17.89,42.34 -4.31,5.23 -9.25,9.87 -14.68,13.87 -15.83,11.64 -35.87,17.67 -56.94,15.32" /><path
         id="path88"
         style="fill:#88bfe0;fill-opacity:1;fill-rule:nonzero;stroke:none"
         d="m 2374.75,737.82 -593.4,-346.8 -36.03,-21.059 -323.16,-188.871 -48.99,-28.621 -86.86,-50.758 -70.73,-41.3516 -2.87,-1.668 -536.554,313.5706 -0.789,0.468 -624.699,365.09 v 916.98 142.52 101.98 196.79 l 1162.052,679.14 1162.03,-679.14 z m -1136.46,2081.15 -25.57,14.94 -25.58,-14.94 L 25.1016,2139.84 0.00390625,2125.18 V 2096.09 1899.3 1797.32 L -0.00390625,737.82 V 708.75 L 25.1016,694.082 650.59,328.52 1187.14,14.9414 1212.71,0 l 25.57,14.9414 2.87,1.668 70.73,41.3515 86.86,50.7581 408.18,238.551 593.4,346.8 25.1,14.68 v 29.07 1358.27 29.07 l -25.1,14.68 -1162.03,679.13" /></g></g></svg>