<?xml version="1.0" encoding="UTF-8" standalone="no"?>
<svg
   xmlns:dc="http://purl.org/dc/elements/1.1/"
   xmlns:cc="http://creativecommons.org/ns#"
   xmlns:rdf="http://www.w3.org/1999/02/22-rdf-syntax-ns#"
   xmlns:svg="http://www.w3.org/2000/svg"
   xmlns="http://www.w3.org/2000/svg"
   viewBox="0 0 562.06665 146.65334"
   height="146.65334"
   width="562.06665"
   xml:space="preserve"
   id="svg2"
   version="1.1"><metadata
     id="metadata8"><rdf:RDF><cc:Work
         rdf:about=""><dc:format>image/svg+xml</dc:format><dc:type
           rdf:resource="http://purl.org/dc/dcmitype/StillImage" /></cc:Work></rdf:RDF></metadata><defs
     id="defs6" /><g
     transform="matrix(1.3333333,0,0,-1.3333333,0,146.65333)"
     id="g10"><g
       transform="scale(0.1)"
       id="g12"><path
         id="path14"
         style="fill:#ffffff;fill-opacity:1;fill-rule:nonzero;stroke:none"
         d="m 1332.37,626.137 c 0,58.961 -47.81,93.015 -109.39,93.015 h -62.24 V 530.496 c 13.1,-0.66 36.03,-1.312 63.55,-1.312 66.81,0 108.08,37.336 108.08,96.953 z M 1056.59,374.582 h 55.02 v 344.57 h -55.02 v 43.243 h 165.73 c 90.4,0 159.18,-52.411 159.18,-135.606 0,-88.434 -64.19,-140.184 -159.83,-140.184 -23.59,0 -48.48,0.653 -60.93,1.309 V 374.582 h 58.3 v -43.23 h -162.45 v 43.23" /><path
         id="path16"
         style="fill:#ffffff;fill-opacity:1;fill-rule:nonzero;stroke:none"
         d="m 1437.16,374.582 h 55.03 v 344.57 h -55.03 v 43.243 h 313.13 V 656.922 h -46.5 v 62.891 H 1541.32 V 571.766 h 140.84 v -41.93 H 1541.32 V 373.934 h 162.47 v 62.886 h 47.16 V 331.352 h -313.79 v 43.23" /><path
         id="path18"
         style="fill:#ffffff;fill-opacity:1;fill-rule:nonzero;stroke:none"
         d="M 1924.53,677.23 V 374.582 h 56.33 v -43.23 h -158.53 v 43.23 h 55.03 v 344.57 h -55.03 v 43.243 h 97.61 l 248.93,-328.2 v 284.957 h -56.99 v 43.243 h 156.56 v -43.243 h -53.06 V 330.043 l -26.85,-0.66 -264,347.847" /><path
         id="path20"
         style="fill:#ffffff;fill-opacity:1;fill-rule:nonzero;stroke:none"
         d="M 2424.98,677.23 V 374.582 h 56.34 v -43.23 h -158.54 v 43.23 h 55.03 v 344.57 h -55.03 v 43.243 h 97.61 l 248.94,-328.2 v 284.957 h -57 v 43.243 h 156.57 v -43.243 h -53.07 V 330.043 l -26.85,-0.66 -264,347.847" /><path
         id="path22"
         style="fill:#88bfe0;fill-opacity:1;fill-rule:nonzero;stroke:none"
         d="m 2838.59,394.906 46.11,54.836 c 41.76,-36.14 84.13,-56.703 137.71,-56.703 47.37,0 77.28,22.438 77.28,54.84 v 1.238 c 0,31.164 -17.45,47.988 -98.46,66.684 -92.85,22.429 -145.19,49.847 -145.19,130.23 v 1.25 c 0,74.778 62.31,126.492 148.93,126.492 63.56,0 114.03,-19.312 158.27,-54.835 l -41.13,-57.95 c -39.25,29.289 -78.51,44.864 -118.39,44.864 -44.86,0 -71.04,-23.051 -71.04,-51.719 v -1.242 c 0,-33.657 19.94,-48.61 104.07,-68.551 92.22,-22.426 139.58,-55.453 139.58,-127.742 v -1.243 c 0,-81.632 -64.19,-130.242 -155.78,-130.242 -66.68,0 -129.61,23.063 -181.96,69.793" /><path
         id="path24"
         style="fill:#88bfe0;fill-opacity:1;fill-rule:nonzero;stroke:none"
         d="m 3256.68,767.547 h 76.65 V 331.352 h -76.65 v 436.195" /><path
         id="path26"
         style="fill:#88bfe0;fill-opacity:1;fill-rule:nonzero;stroke:none"
         d="m 3398.13,767.547 h 84.74 l 131.48,-335.242 130.87,335.242 h 82.87 L 3647.38,328.234 h -67.93 l -181.32,439.313" /><path
         id="path28"
         style="fill:#88bfe0;fill-opacity:1;fill-rule:nonzero;stroke:none"
         d="m 3888.5,767.547 h 326.52 V 698.996 H 3965.14 V 585.59 h 218.73 v -68.539 h -218.73 v -117.16 h 249.88 V 331.352 H 3888.5 v 436.195" /><path
         id="path30"
         style="fill:#ffffff;fill-opacity:1;fill-rule:nonzero;stroke:none"
         d="m 678.629,137.445 c 0.437,-1.785 0.398,-1.558 0,0 v 0" /><path
         id="path32"
         style="fill:#ffffff;fill-opacity:1;fill-rule:nonzero;stroke:none"
         d="m 678.602,137.543 v 0 c 0.007,-0.035 0.015,-0.066 0.027,-0.098 -0.016,0.039 -0.016,0.059 -0.027,0.098" /><path
         id="path34"
         style="fill:#ffffff;fill-opacity:1;fill-rule:nonzero;stroke:none"
         d="m 461.441,799.219 5.071,-15.934 c 0.734,0.133 1.422,0.379 2.179,0.469 8.18,0.914 15.918,-1.477 22.063,-5.992 l 21.375,22.531 -16.574,14.906 -34.114,-15.98" /><path
         id="path36"
         style="fill:#ffffff;fill-opacity:1;fill-rule:nonzero;stroke:none"
         d="m 445.008,825.047 c -2.121,-0.504 -4.274,-0.922 -6.496,-1.172 -13.617,-1.523 -26.578,2.246 -36.93,9.605 l -54.605,-66.066 c 2.921,-2.863 5.57,-6.012 7.644,-9.598 l 97.27,45.579 -6.883,21.652" /><path
         id="path38"
         style="fill:#ffffff;fill-opacity:1;fill-rule:nonzero;stroke:none"
         d="m 496.473,772.406 c 3.722,-4.543 6.261,-10.14 6.961,-16.414 0.425,-3.773 0.046,-7.426 -0.801,-10.906 l 82.793,-31.57 c 2.191,4.824 4.914,9.379 8.187,13.504 l -75.652,68.031 -21.488,-22.645" /><path
         id="path40"
         style="fill:#ffffff;fill-opacity:1;fill-rule:nonzero;stroke:none"
         d="m 475.676,721.25 c -15.93,-1.777 -30.262,8.727 -33.918,23.914 l -81.199,-9.07 c 0.035,-1.285 0.113,-2.574 0.039,-3.836 l 220.414,-32.137 c 0.429,2.063 0.957,4.09 1.582,6.082 l -82.672,31.524 c -4.715,-8.832 -13.543,-15.282 -24.246,-16.477" /><path
         id="path42"
         style="fill:#ffffff;fill-opacity:1;fill-rule:nonzero;stroke:none"
         d="m 572.828,810.145 c -11.887,-1.329 -23.176,2.269 -31.871,9.152 l -17.602,-18.559 75.532,-67.922 c 4.383,4.317 9.375,8.012 14.883,10.946 l -31.348,68.66 c -3.055,-1.074 -6.234,-1.902 -9.594,-2.277" /><path
         id="path44"
         style="fill:#ffffff;fill-opacity:1;fill-rule:nonzero;stroke:none"
         d="m 517.523,805.98 17.782,18.735 c -1.848,2.094 -3.492,4.371 -4.918,6.812 l -27.129,-12.714 14.265,-12.833" /><path
         id="path46"
         style="fill:#ffffff;fill-opacity:1;fill-rule:nonzero;stroke:none"
         d="m 489.219,820.891 -19.59,17.625 c -4.891,-4.707 -10.684,-8.5 -17.156,-11.09 l 6.57,-20.676 30.176,14.141" /><path
         id="path48"
         style="fill:#ffffff;fill-opacity:1;fill-rule:nonzero;stroke:none"
         d="m 527.109,838.645 c -1.152,3.179 -2.054,6.48 -2.445,9.988 -0.316,2.859 -0.316,5.676 -0.094,8.445 l -40.097,6.996 c -1.821,-7.238 -5.098,-13.953 -9.59,-19.75 l 22.047,-19.82 30.179,14.141" /><path
         id="path50"
         style="fill:#ffffff;fill-opacity:1;fill-rule:nonzero;stroke:none"
         d="m 459.039,780.918 -4.75,14.945 -96.418,-45.187 c 0.801,-2.184 1.348,-4.465 1.817,-6.805 l 81.203,9.07 c 0.168,12.223 7.363,22.981 18.148,27.977" /><path
         id="path52"
         style="fill:#ffffff;fill-opacity:1;fill-rule:nonzero;stroke:none"
         d="M 921.281,286.379 690.957,151.77 676.969,143.598 c -1.656,5.98 -4.192,14.629 -7.012,22.449 -14.766,40.902 -37.105,84.297 -51.988,125.164 -5.563,15.269 -13.942,32.855 -26.957,43.344 -3.758,3.027 -8.125,5.101 -12.594,6.875 -4.18,1.656 -1.957,0.238 -5.652,2.84 -1.578,1.109 -2.907,3.14 -3.289,5.031 -0.34,1.719 0.253,3.734 1.793,4.578 0.914,0.5 2.003,0.527 3.039,0.465 6.656,-0.406 21.308,-6.031 24.066,4.222 l 4.27,15.368 c 0.789,2.839 3.664,4.566 6.539,3.925 v 0 c 6.48,-1.445 13.156,-1.902 19.765,-1.328 5.188,0.449 10.797,1.309 13.746,2.934 3.356,1.848 5.403,5.566 6.114,9.328 2.472,12.957 3.074,32.047 6.695,49.594 4.418,21.422 6.164,54.105 23.531,69.183 12.426,10.782 25.711,13.246 35.906,27.981 35.204,50.887 43.786,130.086 41.442,190.156 -1.254,32.074 -8.891,63.551 -21.758,92.723 C 685.684,929.391 564.945,992.352 445.52,969.375 320.992,945.418 247.891,842.102 223.02,724.25 c -6.282,-29.746 -17.95,-61.18 -43.946,-76.945 -29.758,-18.043 -67.586,-10.68 -100.3435,-8.157 -3.7578,0.29 -44.8399,3.77 -59.5157,3.133 v 55.328 39.586 76.375 L 470.25,1077.17 921.281,813.57 Z M 512.098,203.75 c -0.094,-2.535 -0.688,-5.371 -2.809,-6.762 -0.812,-0.531 -1.754,-0.785 -2.715,-0.922 -0.445,-0.058 -0.894,-0.097 -1.34,-0.125 -13.699,-0.871 -25.586,6.375 -37.695,11.645 -7.656,3.336 -8.676,6.672 -16.332,10 17.539,2.984 32.27,10.758 48.941,2.738 4.18,-2.011 8.524,-4.472 10.571,-8.64 1.195,-2.434 1.472,-5.227 1.379,-7.934 z M 379.316,871.164 c -3.285,29.406 17.891,55.91 47.297,59.195 29.403,3.282 55.903,-17.89 59.188,-47.296 0.429,-3.829 0.426,-7.594 0.058,-11.278 l 40.114,-7.004 c 4.531,16.793 18.843,29.969 37.175,32.016 23.926,2.676 45.497,-14.559 48.165,-38.488 1.996,-17.829 -7.083,-34.329 -21.739,-42.692 l 31.336,-68.629 c 5.024,1.93 10.34,3.332 15.942,3.957 35.324,3.946 67.164,-21.496 71.109,-56.82 3.945,-35.324 -21.488,-67.164 -56.816,-71.109 -35.329,-3.946 -67.165,21.488 -71.114,56.816 -0.472,4.25 -0.504,8.441 -0.164,12.543 L 359.414,724.52 c -4.305,-18.301 -19.531,-32.832 -39.285,-35.04 -25.109,-2.808 -47.738,15.274 -50.543,40.387 -2.809,25.106 15.273,47.738 40.387,50.539 11.414,1.282 22.211,-1.922 30.968,-7.98 l 54.567,66.008 c -8.75,8.379 -14.738,19.75 -16.192,32.73 z M 532.531,59.1797 498.813,39.4805 471.359,23.4297 470.25,22.7813 261.992,144.488 l -0.308,0.184 c -0.34,6.414 -2.918,54.945 -2.918,54.949 -0.989,31.438 3.75,62.137 7.586,93.313 3.121,25.336 2.574,50.867 1.461,76.371 -1.04,23.758 20.343,23.711 38.925,19.98 13.664,-2.742 26.114,-9.664 36,-19.488 13.782,-13.688 27.934,-27.68 40.719,-42.129 2.141,-2.406 23.879,-23.086 23.883,-23.09 -0.567,0.543 -21.246,-11.301 -22.985,-12.125 -13.421,-6.39 -27.085,-12.305 -39.843,-20.043 -6.098,-3.699 -11.664,-8.18 -17.043,-12.871 -10.211,-8.898 -28.961,-23.336 -18.34,-39.101 5.75,-8.536 17.484,-9.336 26.617,-7.036 8.692,2.188 20.047,6.914 27.262,12.328 l 18.722,10.536 c -0.945,-0.332 -4.261,-9.536 -4.699,-10.813 -6.863,-20.16 -13.136,-42.871 -16.859,-63.906 -2.383,-13.484 4.711,-31.563 20.738,-31.613 7.238,-0.024 13.711,4.918 17.797,10.898 1.523,2.238 13.656,34.191 13.656,34.191 l 4.328,-2.531 c 11.782,-6.933 25.575,-9.469 38.051,-14.976 13.141,-5.805 25.621,-13.332 36.09,-23.235 8.844,-8.363 19.106,-18.551 26.59,-28.804 7.183,-9.8364 20.898,-24.145 30.266,-31.9379 1.425,-1.1797 2.664,-2.2383 3.855,-3.25 z m 398.672,771.3753 -451.031,263.595 -9.922,5.8 -9.926,-5.8 -451.03103,-263.595 -9.742189,-5.7 V 813.57 737.195 697.609 L -0.453125,286.379 V 275.09 L 9.29297,269.398 252.07,127.512 460.324,5.80078 470.25,0 l 9.922,5.80078 1.113,0.64844 27.457,16.05078 33.711,19.6992 158.426,92.5938 230.324,134.605 9.746,5.692 v 11.289 527.191 11.285 l -9.746,5.7" /><path
         id="path54"
         style="fill:#88bfe0;fill-opacity:1;fill-rule:nonzero;stroke:none"
         d="m 379.355,871.066 c -3.285,29.407 17.887,55.907 47.29,59.192 29.41,3.285 55.91,-17.891 59.195,-47.297 3.289,-29.402 -17.891,-55.902 -47.293,-59.188 -29.406,-3.289 -55.902,17.891 -59.192,47.293" /><path
         id="path56"
         style="fill:#88bfe0;fill-opacity:1;fill-rule:nonzero;stroke:none"
         d="m 269.621,729.766 c -2.805,25.105 15.277,47.738 40.387,50.543 25.109,2.804 47.738,-15.278 50.547,-40.383 2.8,-25.113 -15.282,-47.742 -40.387,-50.547 -25.113,-2.805 -47.738,15.277 -50.547,40.387" /><path
         id="path58"
         style="fill:#88bfe0;fill-opacity:1;fill-rule:nonzero;stroke:none"
         d="m 524.703,848.527 c -2.676,23.934 14.555,45.493 38.481,48.164 23.929,2.676 45.496,-14.554 48.168,-38.48 2.671,-23.93 -14.559,-45.492 -38.485,-48.168 -23.929,-2.672 -45.492,14.559 -48.164,38.484" /><path
         id="path60"
         style="fill:#88bfe0;fill-opacity:1;fill-rule:nonzero;stroke:none"
         d="m 580.07,679.73 c -3.953,35.329 21.489,67.168 56.817,71.114 35.328,3.945 67.164,-21.492 71.113,-56.817 3.945,-35.328 -21.496,-67.164 -56.82,-71.113 -35.328,-3.945 -67.164,21.492 -71.11,56.816" /><path
         id="path62"
         style="fill:#88bfe0;fill-opacity:1;fill-rule:nonzero;stroke:none"
         d="m 440.973,748.91 c -1.93,17.262 10.5,32.813 27.757,34.738 17.258,1.93 32.813,-10.496 34.743,-27.757 1.929,-17.258 -10.496,-32.813 -27.758,-34.743 -17.262,-1.925 -32.82,10.5 -34.742,27.762" /></g></g></svg>